<svg width="30" height="30" viewBox="0 0 30 30" fill="none" xmlns="http://www.w3.org/2000/svg">
  <g clip-path="url(#clip0_5008_163)">
    <path
      d="M15 17.5C14.0054 17.5 13.0516 17.8951 12.3483 18.5983C11.6451 19.3016 11.25 20.2554 11.25 21.25V30.0325H18.75V21.25C18.75 20.2554 18.3549 19.3016 17.6517 18.5983C16.9484 17.8951 15.9946 17.5 15 17.5Z"
      fill="#FFC600" />
    <path
      d="M16.6725 1.04126C16.2134 0.628053 15.6176 0.399414 15 0.399414C14.3824 0.399414 13.7866 0.628053 13.3275 1.04126L0 13.0363V26.0363C0 27.0971 0.421427 28.1145 1.17157 28.8647C1.92172 29.6148 2.93913 30.0363 4 30.0363H8.75V21.25C8.75 19.5924 9.40848 18.0027 10.5806 16.8306C11.7527 15.6585 13.3424 15 15 15C16.6576 15 18.2473 15.6585 19.4194 16.8306C20.5915 18.0027 21.25 19.5924 21.25 21.25V30.0325H26C27.0609 30.0325 28.0783 29.6111 28.8284 28.8609C29.5786 28.1108 30 27.0934 30 26.0325V13.0325L16.6725 1.04126Z"
      fill="#FFC600" />
  </g>
  <defs>
    <clipPath id="clip0_5008_163">
      <rect width="30" height="30" fill="white" />
    </clipPath>
  </defs>
</svg>