<svg width="29" height="30" viewBox="0 0 29 30" fill="none" xmlns="http://www.w3.org/2000/svg">
  <path fill-rule="evenodd" clip-rule="evenodd"
    d="M23.4068 11.7034C23.4068 18.167 18.167 23.4068 11.7034 23.4068C5.23978 23.4068 0 18.167 0 11.7034C0 5.23978 5.23978 0 11.7034 0C18.167 0 23.4068 5.23978 23.4068 11.7034ZM11.7034 19.151C15.8166 19.151 19.151 15.8166 19.151 11.7034C19.151 7.59018 15.8166 4.25578 11.7034 4.25578C7.59018 4.25578 4.25578 7.59018 4.25578 11.7034C4.25578 15.8166 7.59018 19.151 11.7034 19.151Z"
    fill="white" />
  <path fill-rule="evenodd" clip-rule="evenodd"
    d="M25.5347 29.7904L17.0231 21.2789L20.0324 18.2696L28.5439 26.7811L25.5347 29.7904Z" fill="white" />
</svg>